<svg width="151" height="150" viewBox="0 0 151 150" fill="none" xmlns="http://www.w3.org/2000/svg">
<g id="fluent-mdl2:photo-2" clip-path="url(#clip0_35_515)">
<path id="Vector" d="M150.5 18.75V131.25H0.5V18.75H150.5ZM9.875 28.125V77.71L42.6875 44.9707L89.5625 91.8457L108.312 73.0957L141.125 105.835V28.125H9.875ZM9.875 121.875H106.335L42.6875 58.1543L9.875 91.04V121.875ZM141.125 121.875V119.165L108.312 86.2793L96.1543 98.4375L119.665 121.875H141.125ZM117.688 56.25C116.418 56.25 115.319 55.7861 114.392 54.8584C113.464 53.9307 113 52.832 113 51.5625C113 50.293 113.464 49.1943 114.392 48.2666C115.319 47.3389 116.418 46.875 117.688 46.875C118.957 46.875 120.056 47.3389 120.983 48.2666C121.911 49.1943 122.375 50.293 122.375 51.5625C122.375 52.832 121.911 53.9307 120.983 54.8584C120.056 55.7861 118.957 56.25 117.688 56.25Z" fill="white"/>
</g>
<defs>
<clipPath id="clip0_35_515">
<rect width="150" height="150" fill="white" transform="translate(0.5)"/>
</clipPath>
</defs>
</svg>
