<svg width="28" height="28" viewBox="0 0 28 28" fill="none" xmlns="http://www.w3.org/2000/svg">
<path id="Vector" d="M17.9434 14L26.3276 5.61576C27.5236 4.41976 27.5236 2.4807 26.3276 1.2847C25.1316 0.0886953 23.1926 0.0886953 21.9966 1.2847L13.6123 9.66895L5.22806 1.2847C4.03206 0.0886953 2.093 0.0886953 0.897 1.2847C-0.299 2.4807 -0.299 4.41976 0.897 5.61576L9.28125 14L0.897 22.3843C-0.299 23.5803 -0.299 25.5193 0.897 26.7153C1.495 27.3133 2.27875 27.6123 3.0625 27.6123C3.84625 27.6123 4.63006 27.3133 5.228 26.7153L13.6123 18.3311L21.9966 26.7153C22.5946 27.3133 23.3783 27.6123 24.1621 27.6123C24.9458 27.6123 25.7296 27.3133 26.3276 26.7153C27.5236 25.5193 27.5236 23.5803 26.3276 22.3843L17.9434 14Z" fill="#B51100"/>
</svg>
