<svg width="32" height="32" viewBox="0 0 32 32" fill="none" xmlns="http://www.w3.org/2000/svg">
<g id="entypo:new">
<path id="Vector" d="M29.904 19.7504L27.1408 17.2896C26.3408 16.5776 26.3408 15.4112 27.1408 14.6992L29.904 12.2368C30.704 11.5248 30.4912 10.8624 29.4304 10.7584L25.7664 10.4112C24.7072 10.312 24.1344 9.39841 24.5008 8.38561L26.4448 2.97281C26.8096 1.95681 26.3632 1.58881 25.4544 2.15041L21.1328 4.82241C20.9187 4.95653 20.6795 5.04545 20.4298 5.08373C20.1801 5.12201 19.9252 5.10882 19.6808 5.04499C19.4364 4.98115 19.2077 4.86801 19.0086 4.71252C18.8095 4.55703 18.6443 4.36247 18.5232 4.14081L16.9584 1.34721C16.432 0.406407 15.5632 0.403207 15.0272 1.33441L13.5728 3.86241C13.0336 4.79841 11.8 5.19521 10.832 4.75201L8.27198 3.57761C7.29918 3.12961 6.55518 3.64481 6.61278 4.72321L6.75038 7.30721C6.80958 8.38561 6.01278 9.49441 4.98398 9.77281L2.51198 10.4352C1.48478 10.7136 1.29598 11.5232 2.09598 12.2352L4.85918 14.6976C5.65918 15.4096 5.65918 16.576 4.85918 17.288L2.09598 19.7504C1.29598 20.4624 1.50718 21.1536 2.56478 21.2816L5.91678 21.688C6.97438 21.816 7.56318 22.76 7.22558 23.7856L5.50718 28.9984C5.16958 30.024 5.65118 30.4208 6.57598 29.8864L10.5168 27.6048C10.9765 27.3502 11.5146 27.276 12.0261 27.3967C12.5376 27.5174 12.9857 27.8243 13.2832 28.2576L14.9184 30.72C15.5136 31.6144 16.408 31.5664 16.9024 30.6112L18.3408 27.8384C18.5802 27.3784 18.9899 27.0301 19.4825 26.8678C19.9751 26.7055 20.5116 26.742 20.9776 26.9696L23.752 28.3568C24.7088 28.832 25.4432 28.3408 25.3856 27.2656L25.2464 24.6784C25.1904 23.6 25.984 22.4944 27.016 22.216L29.4848 21.5504C30.5152 21.272 30.704 20.4624 29.904 19.7504ZM17.6 22.4H14.4V19.2H17.6V22.4ZM17.6 17.6H14.4V9.60001H17.6V17.6Z" fill="#FFC13A"/>
</g>
</svg>
