<svg width="40" height="46" viewBox="0 0 40 46" fill="none" xmlns="http://www.w3.org/2000/svg">
<path d="M12.5 5.00613C11.837 5.00613 11.2011 5.26952 10.7322 5.73836C10.2634 6.2072 10 6.84308 10 7.50613C10 8.16917 10.2634 8.80505 10.7322 9.27389C11.2011 9.74273 11.837 10.0061 12.5 10.0061C13.163 10.0061 13.7989 9.74273 14.2678 9.27389C14.7366 8.80505 15 8.16917 15 7.50613C15 6.84308 14.7366 6.2072 14.2678 5.73836C13.7989 5.26952 13.163 5.00613 12.5 5.00613ZM5.425 5.00613C5.9415 3.54229 6.89935 2.27471 8.1665 1.3781C9.43365 0.481489 10.9477 0 12.5 0C14.0523 0 15.5663 0.481489 16.8335 1.3781C18.1007 2.27471 19.0585 3.54229 19.575 5.00613H37.5C38.163 5.00613 38.7989 5.26952 39.2678 5.73836C39.7366 6.2072 40 6.84308 40 7.50613C40 8.16917 39.7366 8.80505 39.2678 9.27389C38.7989 9.74273 38.163 10.0061 37.5 10.0061H19.575C19.0585 11.47 18.1007 12.7375 16.8335 13.6342C15.5663 14.5308 14.0523 15.0123 12.5 15.0123C10.9477 15.0123 9.43365 14.5308 8.1665 13.6342C6.89935 12.7375 5.9415 11.47 5.425 10.0061H2.5C1.83696 10.0061 1.20107 9.74273 0.732234 9.27389C0.263393 8.80505 0 8.16917 0 7.50613C0 6.84308 0.263393 6.2072 0.732234 5.73836C1.20107 5.26952 1.83696 5.00613 2.5 5.00613H5.425ZM27.5 20.0061C26.837 20.0061 26.2011 20.2695 25.7322 20.7384C25.2634 21.2072 25 21.8431 25 22.5061C25 23.1692 25.2634 23.805 25.7322 24.2739C26.2011 24.7427 26.837 25.0061 27.5 25.0061C28.163 25.0061 28.7989 24.7427 29.2678 24.2739C29.7366 23.805 30 23.1692 30 22.5061C30 21.8431 29.7366 21.2072 29.2678 20.7384C28.7989 20.2695 28.163 20.0061 27.5 20.0061ZM20.425 20.0061C20.9415 18.5423 21.8993 17.2747 23.1665 16.3781C24.4337 15.4815 25.9477 15 27.5 15C29.0523 15 30.5663 15.4815 31.8335 16.3781C33.1007 17.2747 34.0585 18.5423 34.575 20.0061H37.5C38.163 20.0061 38.7989 20.2695 39.2678 20.7384C39.7366 21.2072 40 21.8431 40 22.5061C40 23.1692 39.7366 23.805 39.2678 24.2739C38.7989 24.7427 38.163 25.0061 37.5 25.0061H34.575C34.0585 26.47 33.1007 27.7375 31.8335 28.6342C30.5663 29.5308 29.0523 30.0123 27.5 30.0123C25.9477 30.0123 24.4337 29.5308 23.1665 28.6342C21.8993 27.7375 20.9415 26.47 20.425 25.0061H2.5C1.83696 25.0061 1.20107 24.7427 0.732234 24.2739C0.263393 23.805 0 23.1692 0 22.5061C0 21.8431 0.263393 21.2072 0.732234 20.7384C1.20107 20.2695 1.83696 20.0061 2.5 20.0061H20.425ZM12.5 35.0061C11.837 35.0061 11.2011 35.2695 10.7322 35.7384C10.2634 36.2072 10 36.8431 10 37.5061C10 38.1692 10.2634 38.8051 10.7322 39.2739C11.2011 39.7427 11.837 40.0061 12.5 40.0061C13.163 40.0061 13.7989 39.7427 14.2678 39.2739C14.7366 38.8051 15 38.1692 15 37.5061C15 36.8431 14.7366 36.2072 14.2678 35.7384C13.7989 35.2695 13.163 35.0061 12.5 35.0061ZM5.425 35.0061C5.9415 33.5423 6.89935 32.2747 8.1665 31.3781C9.43365 30.4815 10.9477 30 12.5 30C14.0523 30 15.5663 30.4815 16.8335 31.3781C18.1007 32.2747 19.0585 33.5423 19.575 35.0061H37.5C38.163 35.0061 38.7989 35.2695 39.2678 35.7384C39.7366 36.2072 40 36.8431 40 37.5061C40 38.1692 39.7366 38.8051 39.2678 39.2739C38.7989 39.7427 38.163 40.0061 37.5 40.0061H19.575C19.0585 41.47 18.1007 42.7375 16.8335 43.6342C15.5663 44.5308 14.0523 45.0123 12.5 45.0123C10.9477 45.0123 9.43365 44.5308 8.1665 43.6342C6.89935 42.7375 5.9415 41.47 5.425 40.0061H2.5C1.83696 40.0061 1.20107 39.7427 0.732234 39.2739C0.263393 38.8051 0 38.1692 0 37.5061C0 36.8431 0.263393 36.2072 0.732234 35.7384C1.20107 35.2695 1.83696 35.0061 2.5 35.0061H5.425Z" fill="black"/>
</svg>
