<svg width="40" height="40" viewBox="0 0 40 40" fill="none" xmlns="http://www.w3.org/2000/svg">
<g id="mingcute:user-4-line" clip-path="url(#clip0_12_60)">
<g id="Group">
<path id="Vector" fill-rule="evenodd" clip-rule="evenodd" d="M20.0002 3.33334C29.2052 3.33334 36.6668 10.795 36.6668 20C36.6727 23.8465 35.3425 27.5756 32.9035 30.55L32.9368 30.5867L32.7168 30.7733C31.1539 32.6221 29.2062 34.1072 27.0097 35.1252C24.8132 36.1431 22.421 36.6692 20.0002 36.6667C15.0835 36.6667 10.6668 34.5383 7.61685 31.155L7.28351 30.7717L7.06351 30.5883L7.09685 30.5483C4.65811 27.5745 3.32788 23.846 3.33351 20C3.33351 10.795 10.7952 3.33334 20.0002 3.33334ZM20.0002 28.3333C16.9002 28.3333 14.0985 29.32 12.0118 30.6767C14.3159 32.4055 17.1197 33.3379 20.0002 33.3333C22.8807 33.3379 25.6845 32.4055 27.9885 30.6767C25.6041 29.1488 22.8321 28.3356 20.0002 28.3333ZM20.0002 6.66668C17.4911 6.66661 15.0328 7.37454 12.908 8.70909C10.7833 10.0437 9.07819 11.9507 7.98878 14.211C6.89937 16.4713 6.46985 18.9931 6.7496 21.4866C7.02934 23.98 8.00699 26.344 9.57018 28.3067C12.2718 26.3683 15.9585 25 20.0002 25C24.0418 25 27.7285 26.3683 30.4302 28.3067C31.9934 26.344 32.971 23.98 33.2508 21.4866C33.5305 18.9931 33.101 16.4713 32.0116 14.211C30.9222 11.9507 29.2171 10.0437 27.0923 8.70909C24.9675 7.37454 22.5093 6.66661 20.0002 6.66668ZM20.0002 10C21.7683 10 23.464 10.7024 24.7142 11.9526C25.9645 13.2029 26.6668 14.8986 26.6668 16.6667C26.6668 18.4348 25.9645 20.1305 24.7142 21.3807C23.464 22.631 21.7683 23.3333 20.0002 23.3333C18.2321 23.3333 16.5364 22.631 15.2861 21.3807C14.0359 20.1305 13.3335 18.4348 13.3335 16.6667C13.3335 14.8986 14.0359 13.2029 15.2861 11.9526C16.5364 10.7024 18.2321 10 20.0002 10ZM20.0002 13.3333C19.1161 13.3333 18.2683 13.6845 17.6432 14.3097C17.018 14.9348 16.6668 15.7826 16.6668 16.6667C16.6668 17.5507 17.018 18.3986 17.6432 19.0237C18.2683 19.6488 19.1161 20 20.0002 20C20.8842 20 21.7321 19.6488 22.3572 19.0237C22.9823 18.3986 23.3335 17.5507 23.3335 16.6667C23.3335 15.7826 22.9823 14.9348 22.3572 14.3097C21.7321 13.6845 20.8842 13.3333 20.0002 13.3333Z" fill="white"/>
</g>
</g>
<defs>
<clipPath id="clip0_12_60">
<rect width="40" height="40" fill="white"/>
</clipPath>
</defs>
</svg>
