<svg width="263" height="300" viewBox="0 0 263 300" fill="none" xmlns="http://www.w3.org/2000/svg">
<path d="M131.25 150C172.676 150 206.25 116.426 206.25 75C206.25 33.5742 172.676 0 131.25 0C89.8242 0 56.25 33.5742 56.25 75C56.25 116.426 89.8242 150 131.25 150ZM187.383 169.102L159.375 281.25L140.625 201.562L159.375 168.75H103.125L121.875 201.562L103.125 281.25L75.1172 169.102C33.3398 171.094 0 205.254 0 247.5V271.875C0 287.402 12.5977 300 28.125 300H234.375C249.902 300 262.5 287.402 262.5 271.875V247.5C262.5 205.254 229.16 171.094 187.383 169.102Z" fill="white"/>
</svg>
