<svg width="32" height="32" viewBox="0 0 32 32" fill="none" xmlns="http://www.w3.org/2000/svg">
<g id="streamline:delete-1-solid" clip-path="url(#clip0_15_133)">
<path id="Vector" fill-rule="evenodd" clip-rule="evenodd" d="M3.90173 0.669703C3.47063 0.253342 2.89326 0.0229548 2.29395 0.0281626C1.69464 0.0333704 1.12136 0.273757 0.697569 0.697547C0.273779 1.12134 0.0333926 1.69462 0.0281848 2.29393C0.022977 2.89324 0.253364 3.47061 0.669726 3.9017L12.768 16L0.669726 28.0983C0.451416 28.3091 0.277286 28.5613 0.157494 28.8402C0.0377017 29.1191 -0.0253526 29.419 -0.0279899 29.7225C-0.0306272 30.026 0.0272053 30.327 0.142133 30.6079C0.257061 30.8888 0.426782 31.144 0.641394 31.3586C0.856006 31.5732 1.11121 31.7429 1.39212 31.8579C1.67302 31.9728 1.974 32.0306 2.2775 32.028C2.581 32.0254 2.88093 31.9623 3.15979 31.8425C3.43866 31.7227 3.69088 31.5486 3.90173 31.3303L16 19.232L28.0983 31.3303C28.5294 31.7466 29.1068 31.977 29.7061 31.9718C30.3054 31.9666 30.8787 31.7262 31.3025 31.3024C31.7262 30.8786 31.9666 30.3054 31.9718 29.706C31.977 29.1067 31.7467 28.5294 31.3303 28.0983L19.232 16L31.3303 3.9017C31.7467 3.47061 31.977 2.89324 31.9718 2.29393C31.9666 1.69462 31.7262 1.12134 31.3025 0.697547C30.8787 0.273757 30.3054 0.0333704 29.7061 0.0281626C29.1068 0.0229548 28.5294 0.253342 28.0983 0.669703L16 12.768L3.90173 0.669703Z" fill="white"/>
</g>
<defs>
<clipPath id="clip0_15_133">
<rect width="32" height="32" fill="white"/>
</clipPath>
</defs>
</svg>
