<svg width="576" height="576" viewBox="0 0 576 576" fill="none" xmlns="http://www.w3.org/2000/svg">
<path d="M40 288C40 151.033 151.033 40 288 40V40C424.967 40 536 151.033 536 288V288C536 424.967 424.967 536 288 536V536C151.033 536 40 424.967 40 288V288Z" fill="white" fill-opacity="0.5"/>
<path d="M288 535C151.586 535 41 424.414 41 288H39C39 425.519 150.481 537 288 537V535ZM535 288C535 424.414 424.414 535 288 535V537C425.519 537 537 425.519 537 288H535ZM288 41C424.414 41 535 151.586 535 288H537C537 150.481 425.519 39 288 39V41ZM288 39C150.481 39 39 150.481 39 288H41C41 151.586 151.586 41 288 41V39Z" fill="black" fill-opacity="0.1"/>
<path d="M175.128 313.44V318.44H163.128V342H157.088V313.44H175.128ZM204.649 327.68C204.649 329.893 204.369 331.907 203.809 333.72C203.276 335.507 202.449 337.053 201.329 338.36C200.236 339.667 198.822 340.667 197.089 341.36C195.382 342.053 193.369 342.4 191.049 342.4C188.729 342.4 186.702 342.053 184.969 341.36C183.262 340.64 181.849 339.64 180.729 338.36C179.636 337.053 178.809 335.493 178.249 333.68C177.716 331.867 177.449 329.853 177.449 327.64C177.449 324.68 177.929 322.107 178.889 319.92C179.876 317.733 181.369 316.04 183.369 314.84C185.396 313.613 187.969 313 191.089 313C194.182 313 196.729 313.613 198.729 314.84C200.729 316.04 202.209 317.747 203.169 319.96C204.156 322.147 204.649 324.72 204.649 327.68ZM183.809 327.68C183.809 329.68 184.062 331.4 184.569 332.84C185.076 334.28 185.862 335.387 186.929 336.16C187.996 336.933 189.369 337.32 191.049 337.32C192.782 337.32 194.169 336.933 195.209 336.16C196.276 335.387 197.049 334.28 197.529 332.84C198.036 331.4 198.289 329.68 198.289 327.68C198.289 324.667 197.729 322.307 196.609 320.6C195.489 318.893 193.649 318.04 191.089 318.04C189.382 318.04 187.996 318.427 186.929 319.2C185.862 319.973 185.076 321.08 184.569 322.52C184.062 323.96 183.809 325.68 183.809 327.68ZM219.685 313.44C223.365 313.44 226.045 314.24 227.725 315.84C229.432 317.413 230.285 319.587 230.285 322.36C230.285 323.613 230.098 324.813 229.725 325.96C229.352 327.08 228.725 328.093 227.845 329C226.992 329.88 225.858 330.573 224.445 331.08C223.032 331.587 221.285 331.84 219.205 331.84H216.605V342H210.565V313.44H219.685ZM219.365 318.4H216.605V326.88H218.605C219.752 326.88 220.738 326.733 221.565 326.44C222.392 326.147 223.032 325.68 223.485 325.04C223.938 324.4 224.165 323.573 224.165 322.56C224.165 321.147 223.778 320.107 223.005 319.44C222.232 318.747 221.018 318.4 219.365 318.4ZM261.602 327.68C261.602 329.893 261.322 331.907 260.762 333.72C260.229 335.507 259.402 337.053 258.282 338.36C257.189 339.667 255.775 340.667 254.042 341.36C252.335 342.053 250.322 342.4 248.002 342.4C245.682 342.4 243.655 342.053 241.922 341.36C240.215 340.64 238.802 339.64 237.682 338.36C236.589 337.053 235.762 335.493 235.202 333.68C234.669 331.867 234.402 329.853 234.402 327.64C234.402 324.68 234.882 322.107 235.842 319.92C236.829 317.733 238.322 316.04 240.322 314.84C242.349 313.613 244.922 313 248.042 313C251.135 313 253.682 313.613 255.682 314.84C257.682 316.04 259.162 317.747 260.122 319.96C261.109 322.147 261.602 324.72 261.602 327.68ZM240.762 327.68C240.762 329.68 241.015 331.4 241.522 332.84C242.029 334.28 242.815 335.387 243.882 336.16C244.949 336.933 246.322 337.32 248.002 337.32C249.735 337.32 251.122 336.933 252.162 336.16C253.229 335.387 254.002 334.28 254.482 332.84C254.989 331.4 255.242 329.68 255.242 327.68C255.242 324.667 254.682 322.307 253.562 320.6C252.442 318.893 250.602 318.04 248.042 318.04C246.335 318.04 244.949 318.427 243.882 319.2C242.815 319.973 242.029 321.08 241.522 322.52C241.015 323.96 240.762 325.68 240.762 327.68ZM289.097 313.44V336.96H292.897V350.32H287.057V342H269.177V350.32H263.337V336.96H265.537C266.283 335.467 267.003 333.893 267.697 332.24C268.39 330.587 269.03 328.813 269.617 326.92C270.23 325.027 270.777 322.973 271.257 320.76C271.737 318.52 272.137 316.08 272.457 313.44H289.097ZM277.257 318.48C277.07 319.867 276.803 321.347 276.457 322.92C276.11 324.467 275.697 326.053 275.217 327.68C274.763 329.307 274.257 330.907 273.697 332.48C273.137 334.053 272.537 335.547 271.897 336.96H283.057V318.48H277.257ZM309.404 318.08C308.257 318.08 307.23 318.307 306.324 318.76C305.444 319.213 304.697 319.867 304.084 320.72C303.47 321.547 303.004 322.56 302.684 323.76C302.39 324.96 302.244 326.307 302.244 327.8C302.244 329.827 302.484 331.56 302.964 333C303.47 334.413 304.257 335.493 305.324 336.24C306.39 336.987 307.75 337.36 309.404 337.36C310.577 337.36 311.737 337.227 312.884 336.96C314.057 336.693 315.324 336.32 316.684 335.84V340.92C315.43 341.427 314.19 341.8 312.964 342.04C311.737 342.28 310.364 342.4 308.844 342.4C305.91 342.4 303.484 341.8 301.564 340.6C299.67 339.373 298.27 337.667 297.364 335.48C296.457 333.267 296.004 330.693 296.004 327.76C296.004 325.6 296.297 323.627 296.884 321.84C297.47 320.027 298.324 318.467 299.444 317.16C300.59 315.853 301.99 314.84 303.644 314.12C305.324 313.4 307.244 313.04 309.404 313.04C310.817 313.04 312.23 313.227 313.644 313.6C315.084 313.947 316.457 314.427 317.764 315.04L315.804 319.96C314.737 319.453 313.657 319.013 312.564 318.64C311.497 318.267 310.444 318.08 309.404 318.08ZM346.032 342H339.152L328.792 327.52V342H322.752V313.44H328.792V327.28L339.032 313.44H345.472L335.072 327.16L346.032 342ZM374.766 327.68C374.766 329.893 374.486 331.907 373.926 333.72C373.393 335.507 372.566 337.053 371.446 338.36C370.353 339.667 368.939 340.667 367.206 341.36C365.499 342.053 363.486 342.4 361.166 342.4C358.846 342.4 356.819 342.053 355.086 341.36C353.379 340.64 351.966 339.64 350.846 338.36C349.753 337.053 348.926 335.493 348.366 333.68C347.833 331.867 347.566 329.853 347.566 327.64C347.566 324.68 348.046 322.107 349.006 319.92C349.993 317.733 351.486 316.04 353.486 314.84C355.513 313.613 358.086 313 361.206 313C364.299 313 366.846 313.613 368.846 314.84C370.846 316.04 372.326 317.747 373.286 319.96C374.273 322.147 374.766 324.72 374.766 327.68ZM353.926 327.68C353.926 329.68 354.179 331.4 354.686 332.84C355.193 334.28 355.979 335.387 357.046 336.16C358.113 336.933 359.486 337.32 361.166 337.32C362.899 337.32 364.286 336.933 365.326 336.16C366.393 335.387 367.166 334.28 367.646 332.84C368.153 331.4 368.406 329.68 368.406 327.68C368.406 324.667 367.846 322.307 366.726 320.6C365.606 318.893 363.766 318.04 361.206 318.04C359.499 318.04 358.113 318.427 357.046 319.2C355.979 319.973 355.193 321.08 354.686 322.52C354.179 323.96 353.926 325.68 353.926 327.68ZM403.682 304.04C403.549 305.427 403.162 306.653 402.522 307.72C401.882 308.76 400.882 309.573 399.522 310.16C398.162 310.747 396.335 311.04 394.042 311.04C391.695 311.04 389.855 310.76 388.522 310.2C387.215 309.613 386.282 308.8 385.722 307.76C385.162 306.72 384.829 305.48 384.722 304.04H390.042C390.175 305.507 390.549 306.48 391.162 306.96C391.775 307.44 392.775 307.68 394.162 307.68C395.309 307.68 396.242 307.427 396.962 306.92C397.709 306.387 398.149 305.427 398.282 304.04H403.682ZM380.682 313.44H386.122V327.24C386.122 327.907 386.109 328.653 386.082 329.48C386.055 330.307 386.029 331.12 386.002 331.92C385.975 332.693 385.949 333.373 385.922 333.96C385.895 334.52 385.869 334.907 385.842 335.12H385.962L399.162 313.44H406.402V342H401.002V328.28C401.002 327.56 401.015 326.773 401.042 325.92C401.069 325.04 401.095 324.2 401.122 323.4C401.175 322.6 401.215 321.907 401.242 321.32C401.295 320.707 401.335 320.307 401.362 320.12H401.202L387.962 342H380.682V313.44ZM209.334 405V376.44H231.934V405H225.894V381.48H215.374V405H209.334ZM265.059 390.68C265.059 392.893 264.779 394.907 264.219 396.72C263.686 398.507 262.859 400.053 261.739 401.36C260.646 402.667 259.232 403.667 257.499 404.36C255.792 405.053 253.779 405.4 251.459 405.4C249.139 405.4 247.112 405.053 245.379 404.36C243.672 403.64 242.259 402.64 241.139 401.36C240.046 400.053 239.219 398.493 238.659 396.68C238.126 394.867 237.859 392.853 237.859 390.64C237.859 387.68 238.339 385.107 239.299 382.92C240.286 380.733 241.779 379.04 243.779 377.84C245.806 376.613 248.379 376 251.499 376C254.592 376 257.139 376.613 259.139 377.84C261.139 379.04 262.619 380.747 263.579 382.96C264.566 385.147 265.059 387.72 265.059 390.68ZM244.219 390.68C244.219 392.68 244.472 394.4 244.979 395.84C245.486 397.28 246.272 398.387 247.339 399.16C248.406 399.933 249.779 400.32 251.459 400.32C253.192 400.32 254.579 399.933 255.619 399.16C256.686 398.387 257.459 397.28 257.939 395.84C258.446 394.4 258.699 392.68 258.699 390.68C258.699 387.667 258.139 385.307 257.019 383.6C255.899 381.893 254.059 381.04 251.499 381.04C249.792 381.04 248.406 381.427 247.339 382.2C246.272 382.973 245.486 384.08 244.979 385.52C244.472 386.96 244.219 388.68 244.219 390.68ZM280.095 376.44C283.775 376.44 286.455 377.24 288.135 378.84C289.842 380.413 290.695 382.587 290.695 385.36C290.695 386.613 290.508 387.813 290.135 388.96C289.762 390.08 289.135 391.093 288.255 392C287.402 392.88 286.268 393.573 284.855 394.08C283.442 394.587 281.695 394.84 279.615 394.84H277.015V405H270.975V376.44H280.095ZM279.775 381.4H277.015V389.88H279.015C280.162 389.88 281.148 389.733 281.975 389.44C282.802 389.147 283.442 388.68 283.895 388.04C284.348 387.4 284.575 386.573 284.575 385.56C284.575 384.147 284.188 383.107 283.415 382.44C282.642 381.747 281.428 381.4 279.775 381.4ZM307.092 405H301.052V381.48H293.292V376.44H314.852V381.48H307.092V405ZM333.924 405L331.844 398.2H321.444L319.364 405H312.844L322.924 376.32H330.324L340.444 405H333.924ZM328.324 386.48C328.19 386.027 328.017 385.453 327.804 384.76C327.59 384.067 327.377 383.36 327.164 382.64C326.95 381.92 326.777 381.293 326.644 380.76C326.51 381.293 326.324 381.96 326.084 382.76C325.87 383.533 325.657 384.28 325.444 385C325.257 385.693 325.11 386.187 325.004 386.48L322.964 393.12H330.404L328.324 386.48ZM366.661 405H360.621V381.48H353.621C353.461 382.707 353.288 384.04 353.101 385.48C352.941 386.92 352.754 388.387 352.541 389.88C352.354 391.347 352.154 392.747 351.941 394.08C351.728 395.387 351.514 396.547 351.301 397.56C350.954 399.213 350.488 400.627 349.901 401.8C349.341 402.973 348.554 403.867 347.541 404.48C346.554 405.093 345.261 405.4 343.661 405.4C343.128 405.4 342.621 405.36 342.141 405.28C341.661 405.2 341.208 405.093 340.781 404.96V400C341.128 400.107 341.461 400.2 341.781 400.28C342.128 400.36 342.501 400.4 342.901 400.4C343.434 400.4 343.874 400.227 344.221 399.88C344.568 399.533 344.874 398.947 345.141 398.12C345.408 397.267 345.674 396.093 345.941 394.6C346.074 393.96 346.234 393.053 346.421 391.88C346.608 390.68 346.821 389.28 347.061 387.68C347.328 386.053 347.594 384.293 347.861 382.4C348.128 380.48 348.381 378.493 348.621 376.44H366.661V405Z" fill="#404040"/>
<path d="M274.892 426.824C274.548 426.824 274.24 426.892 273.968 427.028C273.704 427.164 273.48 427.36 273.296 427.616C273.112 427.864 272.972 428.168 272.876 428.528C272.788 428.888 272.744 429.292 272.744 429.74C272.744 430.348 272.816 430.868 272.96 431.3C273.112 431.724 273.348 432.048 273.668 432.272C273.988 432.496 274.396 432.608 274.892 432.608C275.244 432.608 275.592 432.568 275.936 432.488C276.288 432.408 276.668 432.296 277.076 432.152V433.676C276.7 433.828 276.328 433.94 275.96 434.012C275.592 434.084 275.18 434.12 274.724 434.12C273.844 434.12 273.116 433.94 272.54 433.58C271.972 433.212 271.552 432.7 271.28 432.044C271.008 431.38 270.872 430.608 270.872 429.728C270.872 429.08 270.96 428.488 271.136 427.952C271.312 427.408 271.568 426.94 271.904 426.548C272.248 426.156 272.668 425.852 273.164 425.636C273.668 425.42 274.244 425.312 274.892 425.312C275.316 425.312 275.74 425.368 276.164 425.48C276.596 425.584 277.008 425.728 277.4 425.912L276.812 427.388C276.492 427.236 276.168 427.104 275.84 426.992C275.52 426.88 275.204 426.824 274.892 426.824ZM284.644 427.448V432.692H285.604V436.352H283.996V434H279.592V436.352H277.984V432.692H278.536C278.824 432.252 279.068 431.752 279.268 431.192C279.468 430.624 279.628 430.02 279.748 429.38C279.868 428.74 279.956 428.096 280.012 427.448H284.644ZM281.512 428.792C281.448 429.272 281.368 429.74 281.272 430.196C281.176 430.644 281.056 431.076 280.912 431.492C280.776 431.908 280.608 432.308 280.408 432.692H282.856V428.792H281.512ZM289.421 427.328C290.029 427.328 290.549 427.444 290.981 427.676C291.421 427.908 291.761 428.244 292.001 428.684C292.241 429.124 292.361 429.664 292.361 430.304V431.168H288.137C288.153 431.672 288.301 432.068 288.581 432.356C288.869 432.644 289.265 432.788 289.769 432.788C290.193 432.788 290.577 432.748 290.921 432.668C291.265 432.58 291.621 432.448 291.989 432.272V433.652C291.669 433.812 291.329 433.928 290.969 434C290.617 434.08 290.189 434.12 289.685 434.12C289.029 434.12 288.449 434 287.945 433.76C287.441 433.512 287.045 433.14 286.757 432.644C286.469 432.148 286.325 431.524 286.325 430.772C286.325 430.004 286.453 429.368 286.709 428.864C286.973 428.352 287.337 427.968 287.801 427.712C288.265 427.456 288.805 427.328 289.421 427.328ZM289.433 428.6C289.089 428.6 288.801 428.712 288.569 428.936C288.345 429.16 288.213 429.508 288.173 429.98H290.681C290.681 429.716 290.633 429.48 290.537 429.272C290.449 429.064 290.313 428.9 290.129 428.78C289.945 428.66 289.713 428.6 289.433 428.6ZM299.679 434H297.891V428.792H296.247C296.167 429.752 296.067 430.572 295.947 431.252C295.835 431.924 295.691 432.472 295.515 432.896C295.347 433.32 295.131 433.632 294.867 433.832C294.603 434.024 294.279 434.12 293.895 434.12C293.687 434.12 293.499 434.104 293.331 434.072C293.163 434.04 293.011 433.992 292.875 433.928V432.5C292.963 432.532 293.055 432.56 293.151 432.584C293.247 432.608 293.347 432.62 293.451 432.62C293.563 432.62 293.667 432.576 293.763 432.488C293.867 432.4 293.963 432.244 294.051 432.02C294.147 431.796 294.235 431.488 294.315 431.096C294.395 430.704 294.467 430.212 294.531 429.62C294.603 429.02 294.667 428.296 294.723 427.448H299.679V434ZM304.233 427.316C305.113 427.316 305.785 427.508 306.249 427.892C306.721 428.268 306.957 428.848 306.957 429.632V434H305.709L305.361 433.112H305.313C305.129 433.344 304.937 433.536 304.737 433.688C304.545 433.84 304.321 433.948 304.065 434.012C303.817 434.084 303.509 434.12 303.141 434.12C302.757 434.12 302.409 434.048 302.097 433.904C301.793 433.752 301.553 433.524 301.377 433.22C301.201 432.908 301.113 432.516 301.113 432.044C301.113 431.348 301.357 430.836 301.845 430.508C302.333 430.172 303.065 429.988 304.041 429.956L305.181 429.92V429.632C305.181 429.288 305.089 429.036 304.905 428.876C304.729 428.716 304.481 428.636 304.161 428.636C303.841 428.636 303.529 428.684 303.225 428.78C302.921 428.868 302.617 428.98 302.313 429.116L301.725 427.904C302.077 427.72 302.465 427.576 302.889 427.472C303.321 427.368 303.769 427.316 304.233 427.316ZM304.485 430.988C303.909 431.004 303.509 431.108 303.285 431.3C303.061 431.492 302.949 431.744 302.949 432.056C302.949 432.328 303.029 432.524 303.189 432.644C303.349 432.756 303.557 432.812 303.813 432.812C304.197 432.812 304.521 432.7 304.785 432.476C305.049 432.244 305.181 431.92 305.181 431.504V430.964L304.485 430.988ZM311.488 427.328C312.096 427.328 312.616 427.444 313.048 427.676C313.488 427.908 313.828 428.244 314.068 428.684C314.308 429.124 314.428 429.664 314.428 430.304V431.168H310.204C310.22 431.672 310.368 432.068 310.648 432.356C310.936 432.644 311.332 432.788 311.836 432.788C312.26 432.788 312.644 432.748 312.988 432.668C313.332 432.58 313.688 432.448 314.056 432.272V433.652C313.736 433.812 313.396 433.928 313.036 434C312.684 434.08 312.256 434.12 311.752 434.12C311.096 434.12 310.516 434 310.012 433.76C309.508 433.512 309.112 433.14 308.824 432.644C308.536 432.148 308.392 431.524 308.392 430.772C308.392 430.004 308.52 429.368 308.776 428.864C309.04 428.352 309.404 427.968 309.868 427.712C310.332 427.456 310.872 427.328 311.488 427.328ZM311.5 428.6C311.156 428.6 310.868 428.712 310.636 428.936C310.412 429.16 310.28 429.508 310.24 429.98H312.748C312.748 429.716 312.7 429.48 312.604 429.272C312.516 429.064 312.38 428.9 312.196 428.78C312.012 428.66 311.78 428.6 311.5 428.6ZM324.133 427.448V434H322.465V430.784C322.465 430.464 322.469 430.152 322.477 429.848C322.493 429.544 322.513 429.264 322.537 429.008H322.501L320.689 434H319.345L317.509 428.996H317.461C317.493 429.26 317.513 429.544 317.521 429.848C317.537 430.144 317.545 430.472 317.545 430.832V434H315.877V427.448H318.409L320.041 431.888L321.697 427.448H324.133ZM335.62 434H333.832V428.792H332.188C332.108 429.752 332.008 430.572 331.888 431.252C331.776 431.924 331.632 432.472 331.456 432.896C331.288 433.32 331.072 433.632 330.808 433.832C330.544 434.024 330.22 434.12 329.836 434.12C329.628 434.12 329.44 434.104 329.272 434.072C329.104 434.04 328.952 433.992 328.816 433.928V432.5C328.904 432.532 328.996 432.56 329.092 432.584C329.188 432.608 329.288 432.62 329.392 432.62C329.504 432.62 329.608 432.576 329.704 432.488C329.808 432.4 329.904 432.244 329.992 432.02C330.088 431.796 330.176 431.488 330.256 431.096C330.336 430.704 330.408 430.212 330.472 429.62C330.544 429.02 330.608 428.296 330.664 427.448H335.62V434ZM336.551 427.448H338.507L339.743 431.132C339.783 431.252 339.815 431.372 339.839 431.492C339.871 431.612 339.895 431.736 339.911 431.864C339.935 431.992 339.951 432.128 339.959 432.272H339.995C340.019 432.064 340.051 431.868 340.091 431.684C340.139 431.492 340.191 431.308 340.247 431.132L341.459 427.448H343.379L340.607 434.84C340.439 435.288 340.219 435.664 339.947 435.968C339.683 436.272 339.375 436.5 339.023 436.652C338.671 436.804 338.287 436.88 337.871 436.88C337.671 436.88 337.495 436.868 337.343 436.844C337.199 436.828 337.071 436.808 336.959 436.784V435.368C337.047 435.384 337.151 435.4 337.271 435.416C337.399 435.432 337.531 435.44 337.667 435.44C337.915 435.44 338.127 435.388 338.303 435.284C338.487 435.18 338.639 435.036 338.759 434.852C338.879 434.676 338.975 434.484 339.047 434.276L339.155 433.952L336.551 427.448ZM345.891 429.848C345.891 430.128 345.959 430.34 346.095 430.484C346.239 430.628 346.435 430.7 346.683 430.7C347.027 430.7 347.347 430.664 347.643 430.592C347.939 430.512 348.235 430.408 348.531 430.28V427.448H350.319V434H348.531V431.396C348.251 431.548 347.931 431.688 347.571 431.816C347.211 431.936 346.803 431.996 346.347 431.996C345.667 431.996 345.123 431.82 344.715 431.468C344.307 431.116 344.103 430.588 344.103 429.884V427.448H345.891V429.848ZM361.95 427.448V434H352.194V427.448H353.982V432.656H356.178V427.448H357.966V432.656H360.162V427.448H361.95ZM366.519 427.328C367.127 427.328 367.647 427.444 368.079 427.676C368.519 427.908 368.859 428.244 369.099 428.684C369.339 429.124 369.459 429.664 369.459 430.304V431.168H365.235C365.251 431.672 365.399 432.068 365.679 432.356C365.967 432.644 366.363 432.788 366.867 432.788C367.291 432.788 367.675 432.748 368.019 432.668C368.363 432.58 368.719 432.448 369.087 432.272V433.652C368.767 433.812 368.427 433.928 368.067 434C367.715 434.08 367.287 434.12 366.783 434.12C366.127 434.12 365.547 434 365.043 433.76C364.539 433.512 364.143 433.14 363.855 432.644C363.567 432.148 363.423 431.524 363.423 430.772C363.423 430.004 363.551 429.368 363.807 428.864C364.071 428.352 364.435 427.968 364.899 427.712C365.363 427.456 365.903 427.328 366.519 427.328ZM366.531 428.6C366.187 428.6 365.899 428.712 365.667 428.936C365.443 429.16 365.311 429.508 365.271 429.98H367.779C367.779 429.716 367.731 429.48 367.635 429.272C367.547 429.064 367.411 428.9 367.227 428.78C367.043 428.66 366.811 428.6 366.531 428.6ZM380.467 429.164C380.467 429.516 380.355 429.816 380.131 430.064C379.915 430.312 379.591 430.472 379.159 430.544V430.592C379.615 430.648 379.979 430.804 380.251 431.06C380.531 431.316 380.671 431.644 380.671 432.044C380.671 432.324 380.615 432.584 380.503 432.824C380.399 433.064 380.231 433.272 379.999 433.448C379.767 433.624 379.467 433.76 379.099 433.856C378.739 433.952 378.299 434 377.779 434H374.659V427.448H377.779C378.291 427.448 378.747 427.504 379.147 427.616C379.555 427.72 379.875 427.896 380.107 428.144C380.347 428.392 380.467 428.732 380.467 429.164ZM378.823 431.948C378.823 431.692 378.723 431.508 378.523 431.396C378.323 431.276 378.023 431.216 377.623 431.216H376.447V432.764H377.659C377.995 432.764 378.271 432.704 378.487 432.584C378.711 432.456 378.823 432.244 378.823 431.948ZM378.655 429.308C378.655 429.1 378.575 428.948 378.415 428.852C378.255 428.756 378.019 428.708 377.707 428.708H376.447V430.004H377.503C377.879 430.004 378.163 429.952 378.355 429.848C378.555 429.736 378.655 429.556 378.655 429.308ZM390.462 427.448V434H388.794V430.784C388.794 430.464 388.798 430.152 388.806 429.848C388.822 429.544 388.842 429.264 388.866 429.008H388.83L387.018 434H385.674L383.838 428.996H383.79C383.822 429.26 383.842 429.544 383.85 429.848C383.866 430.144 383.874 430.472 383.874 430.832V434H382.206V427.448H384.738L386.37 431.888L388.026 427.448H390.462ZM395.031 427.328C395.639 427.328 396.159 427.444 396.591 427.676C397.031 427.908 397.371 428.244 397.611 428.684C397.851 429.124 397.971 429.664 397.971 430.304V431.168H393.747C393.763 431.672 393.911 432.068 394.191 432.356C394.479 432.644 394.875 432.788 395.379 432.788C395.803 432.788 396.187 432.748 396.531 432.668C396.875 432.58 397.231 432.448 397.599 432.272V433.652C397.279 433.812 396.939 433.928 396.579 434C396.227 434.08 395.799 434.12 395.295 434.12C394.639 434.12 394.059 434 393.555 433.76C393.051 433.512 392.655 433.14 392.367 432.644C392.079 432.148 391.935 431.524 391.935 430.772C391.935 430.004 392.063 429.368 392.319 428.864C392.583 428.352 392.947 427.968 393.411 427.712C393.875 427.456 394.415 427.328 395.031 427.328ZM395.043 428.6C394.699 428.6 394.411 428.712 394.179 428.936C393.955 429.16 393.823 429.508 393.783 429.98H396.291C396.291 429.716 396.243 429.48 396.147 429.272C396.059 429.064 395.923 428.9 395.739 428.78C395.555 428.66 395.323 428.6 395.043 428.6ZM402.084 434.12C401.436 434.12 400.884 434.004 400.428 433.772C399.972 433.532 399.624 433.164 399.384 432.668C399.144 432.172 399.024 431.536 399.024 430.76C399.024 429.96 399.16 429.308 399.432 428.804C399.704 428.3 400.08 427.928 400.56 427.688C401.048 427.448 401.608 427.328 402.24 427.328C402.688 427.328 403.076 427.372 403.404 427.46C403.74 427.548 404.032 427.652 404.28 427.772L403.752 429.152C403.472 429.04 403.208 428.948 402.96 428.876C402.72 428.804 402.48 428.768 402.24 428.768C401.928 428.768 401.668 428.844 401.46 428.996C401.252 429.14 401.096 429.36 400.992 429.656C400.896 429.944 400.848 430.308 400.848 430.748C400.848 431.18 400.9 431.54 401.004 431.828C401.116 432.108 401.276 432.32 401.484 432.464C401.692 432.6 401.944 432.668 402.24 432.668C402.616 432.668 402.948 432.62 403.236 432.524C403.524 432.42 403.804 432.28 404.076 432.104V433.628C403.804 433.804 403.516 433.928 403.212 434C402.916 434.08 402.54 434.12 402.084 434.12ZM411.008 428.792H408.86V434H407.072V428.792H404.924V427.448H411.008V428.792ZM414.8 427.328C415.408 427.328 415.928 427.444 416.36 427.676C416.8 427.908 417.14 428.244 417.38 428.684C417.62 429.124 417.74 429.664 417.74 430.304V431.168H413.516C413.532 431.672 413.68 432.068 413.96 432.356C414.248 432.644 414.644 432.788 415.148 432.788C415.572 432.788 415.956 432.748 416.3 432.668C416.644 432.58 417 432.448 417.368 432.272V433.652C417.048 433.812 416.708 433.928 416.348 434C415.996 434.08 415.568 434.12 415.064 434.12C414.408 434.12 413.828 434 413.324 433.76C412.82 433.512 412.424 433.14 412.136 432.644C411.848 432.148 411.704 431.524 411.704 430.772C411.704 430.004 411.832 429.368 412.088 428.864C412.352 428.352 412.716 427.968 413.18 427.712C413.644 427.456 414.184 427.328 414.8 427.328ZM414.812 428.6C414.468 428.6 414.18 428.712 413.948 428.936C413.724 429.16 413.592 429.508 413.552 429.98H416.06C416.06 429.716 416.012 429.48 415.916 429.272C415.828 429.064 415.692 428.9 415.508 428.78C415.324 428.66 415.092 428.6 414.812 428.6ZM421.494 431.117H418.758V424.602H421.775L421.494 431.117ZM418.758 434V431.674H421.775V434H418.758Z" fill="#0D46A0"/>
<path d="M317.833 233.333H330.333V225H317.833V233.333ZM330.333 250H317.833V241.667H330.333V250ZM317.833 266.667H330.333V258.333H317.833V266.667Z" fill="#0D46A0"/>
<path fill-rule="evenodd" clip-rule="evenodd" d="M259.5 125L326.167 150V208.333H342.833C343.938 208.333 344.998 208.772 345.78 209.554C346.561 210.335 347 211.395 347 212.5V283.333H351.167C352.272 283.333 353.332 283.772 354.113 284.554C354.894 285.335 355.333 286.395 355.333 287.5C355.333 288.605 354.894 289.665 354.113 290.446C353.332 291.228 352.272 291.667 351.167 291.667H226.167C225.062 291.667 224.002 291.228 223.22 290.446C222.439 289.665 222 288.605 222 287.5C222 286.395 222.439 285.335 223.22 284.554C224.002 283.772 225.062 283.333 226.167 283.333H230.333V195.833C230.333 194.728 230.772 193.668 231.554 192.887C232.335 192.106 233.395 191.667 234.5 191.667H242.833V162.5H251.167V191.667H259.5V125ZM338.667 283.333H330.333V275H317.833V283.333H309.5V216.667H338.667V283.333ZM259.5 200H238.667V283.333H259.5V200ZM280.333 162.5H272V170.833H280.333V162.5ZM288.667 162.5H297V170.833H288.667V162.5ZM313.667 162.5H305.333V170.833H313.667V162.5ZM272 179.167H280.333V187.5H272V179.167ZM297 179.167H288.667V187.5H297V179.167ZM305.333 179.167H313.667V187.5H305.333V179.167ZM280.333 195.833H272V204.167H280.333V195.833ZM288.667 195.833H297V204.167H288.667V195.833ZM313.667 195.833H305.333V204.167H313.667V195.833ZM272 212.5H280.333V220.833H272V212.5ZM297 212.5H288.667V220.833H297V212.5ZM280.333 229.167H272V237.5H280.333V229.167ZM288.667 229.167H297V237.5H288.667V229.167ZM272 245.833H280.333V254.167H272V245.833ZM297 245.833H288.667V254.167H297V245.833ZM280.333 262.5H272V270.833H280.333V262.5ZM288.667 262.5H297V270.833H288.667V262.5Z" fill="#0D46A0"/>
</svg>
